<svg width="500" height="500" viewBox="0 0 500 500" fill="none" xmlns="http://www.w3.org/2000/svg">
<path fill-rule="evenodd" clip-rule="evenodd" d="M268.911 171.142V208.03H303.717C322.914 208.03 338.473 223.478 338.473 242.548C338.473 261.618 322.872 277.074 303.676 277.074C284.48 277.074 268.902 261.455 268.902 242.385L268.911 136.844C268.911 121.034 263.557 105.084 253.937 92.85C250.298 88.5662 251.505 88.6588 247.177 92.2788C247.073 92.3663 246.972 92.4582 246.875 92.5543L226.841 112.457C223.476 115.799 223.816 114.598 226.163 118.337C229.853 124.216 231.699 130.385 231.699 136.844V242.548C231.699 282.002 263.96 313.936 303.676 313.936C343.393 313.936 375.626 282.002 375.626 242.548C375.626 203.094 343.393 171.142 303.676 171.142C277.198 171.142 265.61 171.142 268.911 171.142Z" fill="url(#paint0_linear_3985_42454)"/>
<path fill-rule="evenodd" clip-rule="evenodd" d="M197.113 102.991C204.774 102.991 211.472 104.988 217.208 108.983L243.372 82.8254C230.355 71.6085 214.935 66 197.113 66C157.649 66 125.542 98.1195 125.542 137.598C125.542 177.076 157.649 209.195 197.113 209.195H222.427V172.204H197.113C178.037 172.204 162.518 156.679 162.518 137.598C162.518 118.515 178.037 102.991 197.113 102.991Z" fill="url(#paint1_linear_3985_42454)"/>
<path fill-rule="evenodd" clip-rule="evenodd" d="M268.848 171.407H305.471V179.986V208.319H268.848V171.407Z" fill="url(#paint2_linear_3985_42454)"/>
<path d="M453.505 418.493C457.098 418.493 460 421.43 460 425.023C460 428.616 457.098 431.572 453.505 431.572C449.93 431.572 447.062 428.616 447.062 425.023C447.062 421.43 449.93 418.493 453.505 418.493ZM453.505 419.784C450.673 419.784 448.443 422.05 448.443 425.023C448.443 427.997 450.673 430.28 453.505 430.28C456.336 430.28 458.566 427.997 458.566 425.023C458.566 422.05 456.336 419.784 453.505 419.784ZM453.806 421.413C455.186 421.413 456.213 422.386 456.213 423.643C456.213 424.634 455.575 425.448 454.655 425.749L456.248 428.527H454.708L453.222 425.873H452.691V428.527H451.345V421.413H453.806ZM453.611 422.581H452.691V424.705H453.611C454.407 424.705 454.85 424.315 454.85 423.66C454.85 422.97 454.407 422.581 453.611 422.581ZM382.589 388.876C396.722 388.876 403.196 399.928 403.196 412.013C403.196 412.558 403.17 413.155 403.134 413.774L403.104 414.243L403.038 415.193H373.589C374.773 420.679 378.563 423.541 383.932 423.541C387.846 423.541 390.716 422.339 393.92 419.422L394.196 419.168L401.064 425.29C397.117 430.22 391.432 433.241 383.774 433.241C371.189 433.241 361.855 424.436 361.669 411.608L361.667 411.218L361.669 410.694C361.839 398.695 370.396 388.876 382.589 388.876ZM335.069 388.876C349.202 388.876 355.676 399.928 355.676 412.013C355.676 412.558 355.65 413.155 355.613 413.774L355.584 414.243L355.518 415.193H326.068C327.253 420.679 331.043 423.541 336.411 423.541C340.326 423.541 343.196 422.339 346.4 419.422L346.675 419.168L353.544 425.29C349.597 430.22 343.912 433.241 336.254 433.241C323.669 433.241 314.335 424.436 314.149 411.608L314.146 411.218L314.149 410.694C314.319 398.695 322.876 388.876 335.069 388.876ZM136.639 388.876C149.614 388.876 159.262 398.461 159.454 410.533L159.457 410.9L159.454 411.425C159.261 423.5 149.535 433.241 136.481 433.241C123.506 433.241 113.858 423.656 113.667 411.584L113.664 411.218L113.667 410.692C113.86 398.617 123.586 388.876 136.639 388.876ZM68.8181 375.678C79.0771 375.678 85.2813 379.068 90.3679 384.027L90.6092 384.265L82.8718 393.249C78.6083 389.353 74.2658 386.968 68.7391 386.968C59.5167 386.968 52.8474 394.603 52.7136 404.012L52.7115 404.3L52.7135 404.745C52.8429 414.159 59.3594 421.951 68.7391 421.951C74.6606 421.951 78.431 419.715 82.4572 416.16L82.726 415.921L83.2665 415.431L91.004 423.303C85.3193 429.425 79.0031 433.241 68.3443 433.241C52.2425 433.241 40.242 420.851 40.0036 405.097L40 404.618L40.0035 403.986C40.2374 388.38 52.0128 375.678 68.8181 375.678ZM424.425 389.035C429.794 389.035 435.636 390.864 440.216 393.964L435.636 402.313C431.452 399.848 427.267 398.337 424.188 398.337C421.267 398.337 419.767 399.609 419.767 401.279V401.438C419.767 403.823 423.793 404.936 428.373 406.527L429.06 406.76L429.762 407.006C435.239 408.959 440.998 411.896 441.16 418.867L441.163 419.327C441.163 428.789 434.136 433.082 424.978 433.082C419.056 433.082 412.424 431.094 406.818 426.642L411.95 418.691C416.53 422.031 421.346 423.78 425.293 423.78C428.767 423.78 430.346 422.508 430.346 420.599V420.44C430.346 417.865 426.391 416.975 421.841 415.59L420.7 415.244L420.238 415.098C414.765 413.337 409.103 410.437 408.953 403.014L408.95 402.551C408.95 393.885 415.898 389.035 424.425 389.035ZM254.398 374.247V432.287H242.397V426.165C239.476 430.14 235.45 433.082 229.212 433.082C219.442 433.082 210.135 425.445 209.95 411.484L209.948 411.059L209.95 410.475C210.132 396.513 219.285 388.876 229.212 388.876C235.238 388.876 239.091 391.488 241.894 394.65L242.065 394.844L242.397 395.237V374.247H254.398ZM177.192 389.671V413.444C177.192 419.168 179.876 422.11 184.455 422.11C188.958 422.11 191.858 419.266 191.954 413.728L191.956 413.444V389.671H203.957V432.287H191.956V426.244C189.193 429.822 185.64 433.082 179.56 433.082C170.578 433.082 165.305 427.169 165.193 417.574L165.191 417.26V389.671H177.192ZM287.628 376.632C293.944 376.632 298.918 378.381 302.076 381.561C304.524 384.026 305.786 387.013 305.863 390.667L305.866 391.023L305.863 391.516C305.748 397.587 302.48 401.001 298.603 403.187L299.177 403.415C305.139 405.843 308.829 409.499 308.943 416.525L308.945 416.863L308.943 417.325C308.782 427.2 300.772 432.187 288.629 432.286L261.968 432.287V376.632H287.628ZM108.206 374.247V432.287H96.2051V374.247H108.206ZM232.291 399.132C226.761 399.132 222.077 403.62 221.951 410.611L221.948 410.9L221.951 411.344C222.077 418.261 226.761 422.826 232.291 422.826C237.821 422.826 242.429 418.261 242.553 411.344L242.555 411.059V410.9C242.555 403.823 237.897 399.132 232.291 399.132ZM136.481 399.291C129.704 399.291 125.617 404.477 125.509 410.649L125.507 410.9L125.509 411.306C125.626 417.483 130.094 422.826 136.639 422.826C143.417 422.826 147.504 417.64 147.612 411.468L147.614 411.218L147.611 410.811C147.495 404.634 143.026 399.291 136.481 399.291ZM287.865 409.309H273.811V421.554H288.26C293.536 421.554 296.753 419.711 296.863 415.723L296.866 415.511L296.863 415.166C296.772 411.539 293.998 409.309 287.865 409.309ZM382.589 398.576C377.7 398.576 374.488 402.033 373.481 407.362L373.431 407.64H391.511C390.801 402.233 387.642 398.576 382.589 398.576ZM335.069 398.576C330.179 398.576 326.968 402.033 325.961 407.362L325.911 407.64H343.991C343.28 402.233 340.122 398.576 335.069 398.576ZM285.812 387.365H273.811V399.132H285.023C290.3 399.132 293.671 397.442 293.783 393.457L293.786 393.249V393.09C293.786 389.433 290.944 387.365 285.812 387.365Z" fill="#1E252C"/>
<defs>
<linearGradient id="paint0_linear_3985_42454" x1="270.473" y1="101.232" x2="349.408" y2="253.908" gradientUnits="userSpaceOnUse">
<stop stop-color="#77CFFE"/>
<stop offset="1" stop-color="#289CE1"/>
</linearGradient>
<linearGradient id="paint1_linear_3985_42454" x1="11175.4" y1="3811.2" x2="25175.7" y2="18226.3" gradientUnits="userSpaceOnUse">
<stop stop-color="#289CE1"/>
<stop offset="1" stop-color="#006AB0"/>
</linearGradient>
<linearGradient id="paint2_linear_3985_42454" x1="268.828" y1="189.882" x2="305.445" y2="189.882" gradientUnits="userSpaceOnUse">
<stop stop-color="#006AB0" stop-opacity="0.5"/>
<stop offset="1" stop-color="#006AB0" stop-opacity="0"/>
</linearGradient>
</defs>
</svg>
